# xmcd
#
# Track frame offsets: 
#        150
#        20615
#        44279
#        67532
#        100457
#        122249
#        138646
#        158341
#        178362
#        197927
#
# Disc length: 3273 seconds
#
# Revision: 0
# Processed by: cddbd v1.5.2PL0 Copyright (c) Steve Scherf et al.
# Submitted via: ExactAudioCopyFreeDBPlugin 1.0
#
DISCID=8a0cc70a
DTITLE=Joselito Acedo - Andando
DYEAR=2014
DGENRE=Country
TTITLE0=Andando
TTITLE1=Solea Del Silencio
TTITLE2=El Vestio
TTITLE3=Cerca Hermosa
TTITLE4=Un Sueño
TTITLE5=Pata Negra
TTITLE6=La Tierra Canta
TTITLE7=Mi Siestecita
TTITLE8=Triana
TTITLE9=Coherlos Ahi!!
EXTD=
EXTT0=
EXTT1=
EXTT2=
EXTT3=
EXTT4=
EXTT5=
EXTT6=
EXTT7=
EXTT8=
EXTT9=
PLAYORDER=
